<?xml version="1.0" standalone="no"?>
<svg viewBox="0 0 200 200" xmlns="http://www.w3.org/2000/svg">
  <path fill="#8A3FFC" d="M20.9,-39.1C27.8,-32.2,34.6,-28.1,42.8,-22C51,-15.9,60.7,-8,62.5,1.1C64.4,10.1,58.4,20.2,50.9,27.5C43.4,34.8,34.3,39.3,25.6,49.8C16.9,60.3,8.4,76.9,-2.9,81.9C-14.2,86.9,-28.4,80.3,-38.4,70.5C-48.4,60.7,-54.2,47.7,-55,35.4C-55.8,23.1,-51.5,11.6,-51.3,0.1C-51.1,-11.3,-54.9,-22.6,-54.9,-36.2C-54.8,-49.8,-51,-65.7,-41.2,-70.9C-31.4,-76,-15.7,-70.5,-4.3,-63C7,-55.5,14,-45.9,20.9,-39.1Z" transform="translate(100 100)" />
</svg>
